<?xml version="1.0" encoding="UTF-8"?><svg id="Layer_1" xmlns="http://www.w3.org/2000/svg" viewBox="0 0 151.5 21.51"><defs><style>.cls-1{fill:#080635;}.cls-2,.cls-3{fill:#543edc;}.cls-3{fill-rule:evenodd;}</style></defs><g><polygon class="cls-3" points="11.7 9.57 12.76 10.63 11.7 11.69 6.39 17 10.64 21.26 15.95 15.94 21.27 10.63 15.95 5.31 10.64 0 6.39 4.25 11.7 9.57"/><path class="cls-2" d="M4.82,5.81L0,10.63l4.82,4.82c.08,.08,.22,.08,.3,0l.58-.58c2.34-2.34,2.34-6.14,0-8.48l-.58-.58c-.08-.08-.22-.08-.3,0Z"/></g><g><path class="cls-1" d="M31.79,19.09c-1.04,0-1.92-.28-2.63-.83-.71-.56-1.24-1.31-1.59-2.25-.35-.94-.53-1.98-.53-3.11s.18-2.19,.54-3.12c.36-.94,.91-1.68,1.64-2.24s1.66-.83,2.79-.83c.67,0,1.25,.08,1.74,.24,.49,.16,.92,.33,1.29,.52v-2.2c0-.76-.11-1.37-.32-1.83-.21-.46-.69-.69-1.45-.69h-.45v-.58h2.48c.59,0,1.05,.08,1.38,.25,.33,.17,.56,.48,.69,.92,.13,.45,.2,1.09,.2,1.93v13.57h-1.49l-.88-1.14h-.13c-.25,.32-.62,.63-1.11,.94-.49,.3-1.21,.45-2.17,.45Zm.71-1.04c.49,0,.89-.08,1.2-.24,.31-.16,.57-.36,.78-.59,.21-.24,.4-.48,.57-.73v-7.98c-.35-.19-.73-.36-1.14-.52-.4-.16-.81-.24-1.21-.24-.72,0-1.31,.23-1.74,.7s-.75,1.08-.95,1.84c-.19,.77-.29,1.64-.29,2.62s.09,1.83,.28,2.6c.18,.78,.48,1.39,.9,1.86s.95,.69,1.61,.69Z"/><path class="cls-1" d="M44.19,19.09c-.46,0-.9-.06-1.34-.19-.44-.13-.85-.33-1.23-.61-.38-.28-.69-.64-.92-1.09-.24-.45-.35-.99-.35-1.63,0-.89,.27-1.6,.82-2.12,.55-.52,1.31-.9,2.3-1.12,.99-.23,2.13-.34,3.42-.34h.66c0-1.15-.11-2.02-.33-2.63-.22-.61-.52-1.03-.91-1.26-.39-.23-.83-.35-1.34-.35-.67,0-1.25,.15-1.72,.46-.47,.3-.8,.88-.99,1.74h-1.21c0-.44,.03-.86,.08-1.26,.05-.4,.23-.77,.56-1.09,.32-.32,.84-.55,1.55-.68s1.46-.2,2.24-.2c.64,0,1.24,.08,1.79,.24,.56,.16,1.04,.43,1.47,.81,.42,.38,.75,.91,1,1.6,.24,.69,.37,1.58,.37,2.65v6.82h-1.49l-.88-1.14h-.13c-.25,.34-.66,.65-1.21,.95-.56,.29-1.29,.44-2.2,.44Zm1.04-1.16c.61,0,1.09-.16,1.45-.49s.65-.69,.87-1.07v-3.33h-.66c-1.25,0-2.2,.23-2.87,.68s-1,1.08-1,1.87,.22,1.38,.66,1.77c.44,.39,.95,.58,1.54,.58Z"/><path class="cls-1" d="M57.25,19.09c-.96,0-1.74-.27-2.32-.82-.59-.55-.88-1.4-.88-2.56v-7.71h-1.69v-1.04h1.69v-2.27l1.26-1.52h1.29v3.79h2.96v1.04h-2.96v7.73c0,.81,.14,1.4,.42,1.77s.69,.56,1.23,.56c.44,0,.81-.06,1.11-.18,.3-.12,.57-.24,.81-.38l.28,.56c-.29,.24-.67,.47-1.16,.7-.49,.23-1.16,.34-2.02,.34Z"/><path class="cls-1" d="M65.34,19.09c-.46,0-.9-.06-1.34-.19-.44-.13-.85-.33-1.23-.61-.38-.28-.69-.64-.92-1.09-.24-.45-.35-.99-.35-1.63,0-.89,.27-1.6,.82-2.12,.55-.52,1.31-.9,2.3-1.12,.99-.23,2.13-.34,3.42-.34h.66c0-1.15-.11-2.02-.33-2.63-.22-.61-.52-1.03-.91-1.26-.39-.23-.83-.35-1.34-.35-.67,0-1.25,.15-1.72,.46-.47,.3-.8,.88-.99,1.74h-1.21c0-.44,.03-.86,.08-1.26,.05-.4,.23-.77,.56-1.09,.32-.32,.84-.55,1.55-.68s1.46-.2,2.24-.2c.64,0,1.24,.08,1.79,.24,.56,.16,1.04,.43,1.47,.81,.42,.38,.75,.91,1,1.6,.24,.69,.37,1.58,.37,2.65v6.82h-1.49l-.88-1.14h-.13c-.25,.34-.66,.65-1.21,.95-.56,.29-1.29,.44-2.2,.44Zm1.04-1.16c.61,0,1.09-.16,1.45-.49s.65-.69,.87-1.07v-3.33h-.66c-1.25,0-2.2,.23-2.87,.68s-1,1.08-1,1.87,.22,1.38,.66,1.77c.44,.39,.95,.58,1.54,.58Z"/><path class="cls-1" d="M75.12,18.84V10.07c0-.76-.11-1.37-.32-1.83-.21-.46-.69-.7-1.45-.7h-.43v-.58h2.32c.61,0,1.08,.08,1.43,.25,.34,.17,.58,.41,.72,.73h.13c.32-.3,.75-.59,1.3-.85,.55-.26,1.2-.39,1.96-.39,.49,0,.93,.06,1.34,.18,.4,.12,.76,.3,1.07,.56,.31,.25,.56,.57,.75,.96,.4-.52,.94-.93,1.59-1.24,.66-.3,1.37-.45,2.15-.45,.71,0,1.34,.13,1.91,.4,.56,.27,1.01,.73,1.35,1.39,.34,.66,.51,1.58,.51,2.78v7.56h-2.55v-7.56c0-1.26-.18-2.15-.54-2.65-.36-.51-.86-.76-1.48-.76-.47,0-.95,.16-1.44,.47-.49,.31-.85,.64-1.09,1,.08,.2,.14,.5,.16,.88,.02,.39,.04,.74,.04,1.06v7.56h-2.53v-7.56c0-1.26-.18-2.15-.54-2.65s-.85-.76-1.48-.76c-.45,0-.88,.12-1.29,.37-.4,.24-.75,.53-1.04,.85v9.75h-2.55Z"/><path class="cls-1" d="M95.36,18.84V10.07c0-.76-.11-1.37-.32-1.83-.21-.46-.69-.7-1.45-.7h-.43v-.58h2.45c.59,0,1.05,.08,1.38,.25,.33,.17,.56,.48,.69,.92s.2,1.09,.2,1.93v8.77h-2.53Zm1.14-13.34c-.46,0-.83-.17-1.11-.52-.29-.34-.43-.75-.43-1.2,0-.37,.11-.66,.34-.87,.23-.21,.52-.32,.87-.32,.46,0,.83,.17,1.11,.51,.29,.34,.43,.73,.43,1.19,0,.37-.11,.67-.34,.88-.23,.22-.52,.33-.87,.33Z"/><path class="cls-1" d="M101.82,18.84V10.07c0-.76-.11-1.37-.32-1.83-.21-.46-.69-.7-1.45-.7h-.43v-.58h2.32c.62,0,1.1,.08,1.43,.25,.33,.17,.57,.41,.72,.73,.34-.29,.8-.56,1.38-.83,.58-.27,1.28-.4,2.11-.4s1.55,.13,2.21,.4c.66,.27,1.2,.73,1.6,1.39,.4,.66,.61,1.58,.61,2.78v7.56h-2.53v-7.56c0-.84-.13-1.51-.38-2.01-.25-.5-.58-.85-.99-1.07-.4-.22-.84-.33-1.31-.33-.51,0-.96,.12-1.38,.35-.41,.24-.76,.51-1.05,.81v9.8h-2.55Z"/><path class="cls-1" d="M119.61,19.09c-1.04,0-1.92-.28-2.63-.83-.71-.56-1.24-1.31-1.59-2.25-.35-.94-.53-1.98-.53-3.11s.18-2.19,.54-3.12c.36-.94,.91-1.68,1.64-2.24s1.66-.83,2.79-.83c.67,0,1.25,.08,1.74,.24,.49,.16,.92,.33,1.29,.52v-2.2c0-.76-.11-1.37-.32-1.83-.21-.46-.69-.69-1.45-.69h-.45v-.58h2.48c.59,0,1.05,.08,1.38,.25,.33,.17,.56,.48,.69,.92,.13,.45,.2,1.09,.2,1.93v13.57h-1.49l-.88-1.14h-.13c-.25,.32-.62,.63-1.11,.94-.49,.3-1.21,.45-2.17,.45Zm.71-1.04c.49,0,.89-.08,1.2-.24,.31-.16,.57-.36,.78-.59,.21-.24,.4-.48,.57-.73v-7.98c-.35-.19-.73-.36-1.14-.52-.4-.16-.81-.24-1.21-.24-.72,0-1.31,.23-1.74,.7s-.75,1.08-.95,1.84c-.19,.77-.29,1.64-.29,2.62s.09,1.83,.28,2.6c.18,.78,.48,1.39,.9,1.86s.95,.69,1.61,.69Z"/><path class="cls-1" d="M133.79,19.09c-1.18,0-2.17-.27-2.98-.82s-1.42-1.29-1.83-2.24c-.41-.94-.62-1.99-.62-3.13s.21-2.26,.64-3.2c.43-.94,1.03-1.67,1.81-2.2,.77-.53,1.68-.8,2.73-.8,1.13,0,2.08,.21,2.84,.64,.77,.43,1.35,1.05,1.74,1.86,.4,.81,.59,1.79,.59,2.93l-.05,1.16h-7.66c0,1.45,.29,2.6,.87,3.46,.58,.86,1.38,1.29,2.39,1.29,.84,0,1.54-.19,2.08-.56,.55-.37,1.04-.87,1.48-1.49l.56,.43c-.32,.57-.7,1.06-1.15,1.45-.45,.4-.95,.7-1.52,.9s-1.21,.3-1.93,.3Zm-2.78-6.85h5.05c0-1.52-.22-2.64-.64-3.39s-1.06-1.11-1.88-1.11c-.47,0-.9,.18-1.28,.54-.38,.36-.68,.88-.91,1.55s-.34,1.47-.34,2.4Z"/><path class="cls-1" d="M145.71,19.09c-1.04,0-1.92-.28-2.63-.83-.71-.56-1.24-1.31-1.59-2.25-.35-.94-.53-1.98-.53-3.11s.18-2.19,.54-3.12c.36-.94,.91-1.68,1.64-2.24s1.66-.83,2.79-.83c.67,0,1.25,.08,1.74,.24,.49,.16,.92,.33,1.29,.52v-2.2c0-.76-.11-1.37-.32-1.83-.21-.46-.69-.69-1.45-.69h-.45v-.58h2.48c.59,0,1.05,.08,1.38,.25,.33,.17,.56,.48,.69,.92,.13,.45,.2,1.09,.2,1.93v13.57h-1.49l-.88-1.14h-.13c-.25,.32-.62,.63-1.11,.94-.49,.3-1.21,.45-2.17,.45Zm.71-1.04c.49,0,.89-.08,1.2-.24,.31-.16,.57-.36,.78-.59,.21-.24,.4-.48,.57-.73v-7.98c-.35-.19-.73-.36-1.14-.52-.4-.16-.81-.24-1.21-.24-.72,0-1.31,.23-1.74,.7s-.75,1.08-.95,1.84c-.19,.77-.29,1.64-.29,2.62s.09,1.83,.28,2.6c.18,.78,.48,1.39,.9,1.86s.95,.69,1.61,.69Z"/></g></svg>